<svg version="1.2" xmlns="http://www.w3.org/2000/svg" viewBox="0 0 1516 409" width="1516" height="409">
	<title>hsbc-logo-200x25-svg</title>
	<style>
		.s0 { fill: #ffffff } 
		.s1 { fill: #db0011 } 
		.s2 { fill: #000000 } 
	</style>
	<path id="Layer" class="s0" d="m204.4 0h407.8v408h-407.8z"/>
	<path id="Layer" class="s1" d="m612.2 408.5v-408.5l203.8 204.5z"/>
	<path id="Layer" class="s1" d="m204.4 0h407.8l-203.9 204.5z"/>
	<path id="Layer" class="s1" d="m204.4 0v408.5l-204.4-204z"/>
	<path id="Layer" class="s1" d="m612.2 408.5h-407.8l203.9-204z"/>
	<path id="Layer" class="s2" d="m995 216.5h-73.9v72.9h-36.9v-170.8h36.9v70h73.9v-70h36.9v170.8h-36.9z"/>
	<path id="Layer" class="s2" d="m1121.2 292.8c-37 0-67.2-14.9-67.7-55.7h37c0.4 18.3 11 29.3 31.1 29.3 14.9 0 32.2-7.7 32.2-24.5 0-13.4-11.5-17.3-30.7-23l-12.5-3.4c-26.9-7.7-53.7-18.2-53.7-48.9 0-38 35.5-50.9 67.6-50.9 33.1 0 61.9 11.5 62.4 49.4h-36.9c-1.5-15.3-10.6-24.5-27.9-24.5-13.9 0-27.3 7.2-27.3 22.6 0 12.5 11.5 16.3 35.5 24l14.4 4.3c29.2 9.1 48 19.2 48 48-0.5 38.4-37.9 53.3-71.5 53.3z"/>
	<path id="Layer" fill-rule="evenodd" class="s2" d="m1213.3 119h59.5c11-0.4 22.5 0 33.6 2 20.6 4.8 36.4 18.2 36.4 41.2 0 22.1-13.9 33.2-34.1 38.4 23.1 4.4 40.3 15.9 40.3 41.3 0 38.9-38.3 47.5-68.1 47.5h-67.1zm59.4 71.1c16.4 0 33.2-3.4 33.2-23.1 0-17.7-15.4-22.5-30.8-22.5h-25.9v45.6zm3.4 73.9c17.3 0 34.1-3.8 34.1-25 0-21.1-14.4-24.9-32.2-24.9h-29.2v49.9z"/>
	<path id="Layer" class="s2" d="m1445 292.8c-55.2 0-79.6-35-79.6-87.4 0-52.3 27.3-90.2 81.5-90.2 34.1 0 67.2 15.4 68.1 53.8h-38.3c-2-17.3-13.5-26-29.8-26-33.6 0-43.6 36-43.6 63.4 0 27.4 10 59 42.2 59 16.8 0 29.2-9.1 31.6-26.4h38.4c-3.8 39.4-35 53.8-70.5 53.8z"/>
</svg>